<svg width="273" height="83" viewBox="0 0 273 83" fill="none" xmlns="http://www.w3.org/2000/svg">
<path d="M31.25 39.875H23.1406L32.1094 48.3438C32.2905 48.5158 32.4159 48.7382 32.4694 48.9822C32.523 49.2263 32.5021 49.4807 32.4096 49.7128C32.3171 49.9449 32.1572 50.1439 31.9505 50.2842C31.7438 50.4245 31.4998 50.4997 31.25 50.5H21.25V59.875C21.251 60.1178 21.1804 60.3555 21.047 60.5584C20.9136 60.7613 20.7234 60.9203 20.5 61.0156C20.3436 61.089 20.1728 61.1264 20 61.125C19.6807 61.1215 19.3743 60.9989 19.1406 60.7812L7.89064 50.1562C7.76669 50.0402 7.66803 49.8998 7.60082 49.7439C7.53361 49.5879 7.49929 49.4198 7.50001 49.25V38.625C7.50001 38.2935 7.63171 37.9755 7.86613 37.7411C8.10055 37.5067 8.41849 37.375 8.75001 37.375H16.8594L7.89064 28.9062C7.70951 28.7342 7.5841 28.5118 7.53059 28.2678C7.47707 28.0237 7.4979 27.7693 7.5904 27.5372C7.68289 27.3051 7.8428 27.1061 8.04949 26.9658C8.25619 26.8255 8.50019 26.7503 8.75001 26.75H31.25C31.5815 26.75 31.8995 26.8817 32.1339 27.1161C32.3683 27.3505 32.5 27.6685 32.5 28V38.625C32.5 38.9565 32.3683 39.2745 32.1339 39.5089C31.8995 39.7433 31.5815 39.875 31.25 39.875Z" fill="url(#paint0_linear_77_2)"/>
<path d="M60.4 42.488C61.5307 42.488 62.4267 42.0933 63.088 41.304C63.7493 40.5147 64.08 39.4267 64.08 38.04C64.08 36.3547 63.6747 34.9893 62.864 33.944C62.0533 32.8773 60.8587 32.344 59.28 32.344C58.2347 32.344 57.2533 32.664 56.336 33.304V51.704L61.904 52.92L60.848 55H47.536V53.208L50.544 50.84V33.016L46.992 31.928L48.048 29.848H53.36C55.2587 29.848 57.1253 29.784 58.96 29.656C60.3253 29.5707 61.328 29.528 61.968 29.528C63.632 29.528 65.104 29.8587 66.384 30.52C67.664 31.16 68.656 32.0453 69.36 33.176C70.064 34.3067 70.416 35.5653 70.416 36.952C70.416 38.488 69.8293 39.928 68.656 41.272C67.4827 42.616 66 43.672 64.208 44.44C62.416 45.208 60.6667 45.5493 58.96 45.464L57.552 44.6L58.608 42.52H60.4V42.488ZM90.09 55H82.794V52.216L79.178 55.064C78.7513 55.2347 78.218 55.32 77.578 55.32C75.53 55.32 74.0473 54.8187 73.13 53.816C72.234 52.8133 71.786 51.608 71.786 50.2C71.786 49.368 72.042 48.5573 72.554 47.768C73.066 46.9573 73.802 46.2107 74.762 45.528H82.794V44.984C82.794 43.8107 82.474 42.9467 81.834 42.392C81.194 41.8373 80.3407 41.56 79.274 41.56C77.7807 41.56 75.8287 42.1467 73.418 43.32L72.458 41.496L76.906 37.912C77.994 37.592 79.2633 37.432 80.714 37.432C83.1033 37.432 84.9487 37.976 86.25 39.064C87.5727 40.152 88.234 41.7307 88.234 43.8V51.8L91.114 52.92L90.09 55ZM79.21 51.032C80.298 51.032 81.4927 50.584 82.794 49.688V47.64H77.642C77.4713 47.896 77.3433 48.1413 77.258 48.376C77.194 48.5893 77.162 48.8347 77.162 49.112C77.162 49.6453 77.3433 50.0933 77.706 50.456C78.09 50.8187 78.5913 51 79.21 51V51.032ZM108.587 40.856C108.95 41.5387 109.131 42.264 109.131 43.032C109.131 44.3333 108.577 45.592 107.467 46.808C106.379 48.0027 105.025 48.9093 103.403 49.528C102.849 50.168 102.571 50.808 102.571 51.448C102.571 51.7467 102.806 52.0453 103.275 52.344C103.745 52.6213 104.481 52.984 105.483 53.432C106.955 54.072 108.086 54.6587 108.875 55.192C109.665 55.7467 110.059 56.3867 110.059 57.112C110.059 57.7947 109.633 58.6373 108.779 59.64C107.926 60.664 106.859 61.5493 105.579 62.296C104.321 63.064 103.094 63.448 101.899 63.448C100.598 63.448 99.0513 63.2453 97.2593 62.84C95.4673 62.4347 93.9739 62.0293 92.7793 61.624V55.896H94.7953C95.8406 57.304 96.8966 58.3707 97.9633 59.096C99.0513 59.8427 100.278 60.216 101.643 60.216C102.347 60.216 102.934 60.056 103.403 59.736C103.894 59.4373 104.139 59.1173 104.139 58.776C104.139 58.2853 103.851 57.848 103.275 57.464C102.721 57.1013 101.857 56.6533 100.683 56.12C99.4246 55.5653 98.4753 55.0747 97.8353 54.648C97.1953 54.2 96.8753 53.688 96.8753 53.112C96.8753 52.6 97.2593 52.0773 98.0273 51.544C98.8166 51.0107 99.7553 50.5413 100.843 50.136C100.417 50.1787 100.097 50.2 99.8833 50.2C98.5819 50.2 97.3873 49.944 96.2993 49.432C95.2326 48.92 94.3899 48.2373 93.7713 47.384C93.1526 46.5093 92.8433 45.5813 92.8433 44.6C92.8433 43.384 93.2913 42.2213 94.1873 41.112C95.0833 40.0027 96.2459 39.1173 97.6753 38.456C99.1046 37.7733 100.566 37.432 102.059 37.432C103.766 37.432 105.27 37.8587 106.571 38.712H111.851L111.883 40.856H108.587ZM101.771 46.552C102.454 46.552 102.977 46.392 103.339 46.072C103.723 45.7307 103.915 45.2293 103.915 44.568C103.915 43.5227 103.574 42.7013 102.891 42.104C102.23 41.4853 101.345 41.176 100.235 41.176C98.8273 41.176 98.1233 41.8053 98.1233 43.064C98.1233 44.088 98.4539 44.9307 99.1153 45.592C99.7979 46.232 100.683 46.552 101.771 46.552ZM124.038 37.432C126.278 37.432 128.006 38.2853 129.222 39.992C130.459 41.6987 131.057 44.0667 131.014 47.096H119.494C119.707 48.3973 120.166 49.4427 120.87 50.232C121.574 51 122.491 51.384 123.622 51.384C125.115 51.384 127.259 50.6373 130.054 49.144L131.014 50.968L126.15 54.84C124.891 55.16 123.43 55.32 121.766 55.32C120.209 55.32 118.801 54.9573 117.542 54.232C116.305 53.4853 115.334 52.472 114.63 51.192C113.947 49.912 113.606 48.4933 113.606 46.936C113.606 45.2507 114.15 43.6827 115.238 42.232C116.326 40.76 117.681 39.5973 119.302 38.744C120.945 37.8693 122.523 37.432 124.038 37.432ZM122.278 41.144C121.339 41.144 120.635 41.464 120.166 42.104C119.697 42.7227 119.441 43.6827 119.398 44.984H125.51C125.339 43.6613 125.019 42.6907 124.55 42.072C124.102 41.4533 123.334 41.144 122.246 41.144H122.278ZM167.444 38.072L165.684 38.776L161.172 32.28H158.196V51.992L161.78 52.92L160.724 55H149.396V53.208L152.404 50.84V32.28H149.556L145.044 38.776L143.284 38.072V29.272L145.588 29.848H165.14L167.444 29.272V38.072ZM189.221 55H181.925V52.248L178.469 55.096C177.893 55.2667 177.243 55.352 176.517 55.352C174.875 55.352 173.573 54.9147 172.613 54.04C171.653 53.144 171.173 51.9387 171.173 50.424V43.544L168.325 41.912V40.12L174.597 37.336H176.613V48.024C176.613 49.048 176.763 49.7627 177.061 50.168C177.36 50.5733 177.893 50.776 178.661 50.776C179.771 50.776 180.859 50.4133 181.925 49.688V43.544L179.077 41.912V40.12L185.349 37.336H187.365V51.96L190.245 52.92L189.221 55ZM202.718 41.976C201.95 41.976 201.182 42.3173 200.414 43V51.64L205.278 52.92L204.254 55H192.126V53.208L194.974 50.808V43.544L192.126 41.752V39.96L198.782 37.144L199.998 40.696L202.91 37.688C203.358 37.5173 203.881 37.432 204.478 37.432C205.587 37.432 206.537 37.688 207.326 38.2C208.137 38.712 208.702 39.416 209.022 40.312L205.95 44.152H203.934C203.913 43.384 203.806 42.84 203.614 42.52C203.422 42.1787 203.123 42.008 202.718 42.008V41.976ZM231.337 55H224.073V44.76C224.073 43.7573 223.913 43.0533 223.593 42.648C223.294 42.2213 222.761 42.008 221.993 42.008C220.862 42.008 219.742 42.3707 218.633 43.096V51.96L221.513 52.92L220.457 55H210.345V53.208L213.193 50.808V43.544L210.345 41.752V39.96L217.001 37.144L218.249 40.856L222.217 37.688C222.793 37.5173 223.443 37.432 224.169 37.432C225.79 37.432 227.081 37.88 228.041 38.776C229.022 39.6507 229.513 40.8453 229.513 42.36V51.96L232.393 52.92L231.337 55ZM244.882 37.432C247.122 37.432 248.85 38.2853 250.066 39.992C251.303 41.6987 251.9 44.0667 251.858 47.096H240.338C240.551 48.3973 241.01 49.4427 241.714 50.232C242.418 51 243.335 51.384 244.466 51.384C245.959 51.384 248.103 50.6373 250.898 49.144L251.858 50.968L246.994 54.84C245.735 55.16 244.274 55.32 242.61 55.32C241.052 55.32 239.644 54.9573 238.386 54.232C237.148 53.4853 236.178 52.472 235.474 51.192C234.791 49.912 234.45 48.4933 234.45 46.936C234.45 45.2507 234.994 43.6827 236.082 42.232C237.17 40.76 238.524 39.5973 240.146 38.744C241.788 37.8693 243.367 37.432 244.882 37.432ZM243.122 41.144C242.183 41.144 241.479 41.464 241.01 42.104C240.54 42.7227 240.284 43.6827 240.242 44.984H246.354C246.183 43.6613 245.863 42.6907 245.394 42.072C244.946 41.4533 244.178 41.144 243.09 41.144H243.122ZM265.718 41.976C264.95 41.976 264.182 42.3173 263.414 43V51.64L268.278 52.92L267.254 55H255.126V53.208L257.974 50.808V43.544L255.126 41.752V39.96L261.782 37.144L262.998 40.696L265.91 37.688C266.358 37.5173 266.881 37.432 267.478 37.432C268.587 37.432 269.537 37.688 270.326 38.2C271.137 38.712 271.702 39.416 272.022 40.312L268.95 44.152H266.934C266.913 43.384 266.806 42.84 266.614 42.52C266.422 42.1787 266.123 42.008 265.718 42.008V41.976Z" fill="url(#paint1_linear_77_2)"/>
<defs>
<linearGradient id="paint0_linear_77_2" x1="8.49138" y1="26.75" x2="33.0655" y2="27.1591" gradientUnits="userSpaceOnUse">
<stop stop-color="#4754E6"/>
<stop offset="1" stop-color="#FFD9D9"/>
</linearGradient>
<linearGradient id="paint1_linear_77_2" x1="54.9621" y1="-3.53011e-05" x2="276.314" y2="13.7983" gradientUnits="userSpaceOnUse">
<stop stop-color="#4754E6"/>
<stop offset="1" stop-color="#FFD9D9"/>
</linearGradient>
</defs>
</svg>
